<?xml version="1.0" standalone="no"?>
<!DOCTYPE svg PUBLIC "-//W3C//DTD SVG 20010904//EN"
 "http://www.w3.org/TR/2001/REC-SVG-20010904/DTD/svg10.dtd">
<svg version="1.0" xmlns="http://www.w3.org/2000/svg"
 width="3262.000000pt" height="3223.000000pt" viewBox="0 0 3262.000000 3223.000000"
 preserveAspectRatio="xMidYMid meet">

<g transform="translate(0.000000,3223.000000) scale(0.100000,-0.100000)"
fill="#000000" stroke="none">
<path d="M5399 31086 c-2 -2 -62 -6 -134 -10 -1280 -61 -2504 -734 -3261
-1792 -266 -371 -489 -817 -618 -1234 -70 -227 -133 -515 -157 -713 -5 -51
-12 -103 -14 -117 -3 -14 -8 -77 -12 -140 -10 -147 -10 -21668 -1 -21815 61
-901 404 -1753 997 -2469 101 -123 351 -377 484 -493 650 -564 1457 -922 2312
-1027 218 -26 595 -27 11205 -24 9970 4 10895 5 11005 20 617 83 1131 251
1621 528 1044 590 1793 1576 2079 2735 43 174 86 415 100 560 4 39 10 84 13
100 10 48 11 21776 1 21905 -13 166 -35 321 -75 520 -226 1132 -901 2126
-1876 2764 -635 414 -1355 651 -2118 695 -136 8 -21542 15 -21551 7z m21681
-1030 c19 -4 82 -14 140 -22 146 -21 400 -84 557 -138 843 -290 1522 -893
1912 -1696 178 -367 279 -735 320 -1170 5 -56 8 -4583 8 -10910 -2 -10354 -3
-10821 -20 -10950 -101 -760 -427 -1422 -961 -1953 -480 -477 -1105 -799
-1771 -912 -270 -45 301 -43 -11155 -43 -5948 0 -10850 4 -10893 8 -796 85
-1459 392 -2011 930 -555 542 -884 1211 -983 2000 -17 139 -18 585 -18 10970
0 10377 1 10831 18 10965 53 413 150 739 323 1090 360 731 972 1300 1731 1609
350 142 760 229 1113 235 63 1 115 3 116 4 6 6 21545 -11 21574 -17z"/>
<path d="M5285 29563 c-800 -65 -1538 -474 -2019 -1118 -300 -401 -469 -820
-543 -1350 -16 -112 -17 -833 -21 -10800 -2 -7548 0 -10731 8 -10855 18 -297
56 -504 135 -747 279 -851 954 -1523 1807 -1798 144 -47 278 -78 458 -107
l145 -23 10850 0 c10361 0 10856 1 10975 18 847 121 1569 590 2018 1310 231
371 373 804 411 1252 12 145 12 21492 0 21635 -32 373 -120 691 -284 1025
-320 653 -875 1150 -1563 1401 -167 61 -409 120 -567 139 -33 4 -69 10 -80 14
-20 6 -21655 11 -21730 4z m12990 -7889 c185 -32 376 -110 534 -216 59 -40
562 -537 2259 -2232 1443 -1441 2205 -2210 2248 -2266 79 -104 175 -294 209
-415 117 -412 42 -838 -208 -1170 -104 -138 -4359 -4391 -4487 -4485 -216
-158 -500 -250 -777 -250 -654 0 -1214 483 -1309 1130 -20 136 -15 343 10 459
40 182 126 377 228 516 29 40 488 508 1062 1083 l1011 1012 -4890 1 c-2690 0
-4910 2 -4935 5 -164 18 -338 68 -465 132 -381 191 -649 553 -721 977 -20 120
-15 370 11 485 58 259 170 465 360 656 205 207 432 326 713 374 112 20 194 20
5020 20 l4907 0 -1016 1018 c-1101 1102 -1085 1085 -1184 1295 -231 488 -137
1080 233 1469 212 222 443 348 745 403 103 18 333 18 442 -1z"/>
</g>
</svg>
